<?xml version="1.0" standalone="no"?>
<!DOCTYPE svg PUBLIC "-//W3C//DTD SVG 20010904//EN"
 "http://www.w3.org/TR/2001/REC-SVG-20010904/DTD/svg10.dtd">
<svg version="1.0" xmlns="http://www.w3.org/2000/svg"
 width="400.000000pt" height="400.000000pt" viewBox="0 0 400.000000 400.000000"
 preserveAspectRatio="xMidYMid meet">
<metadata>
Created by potrace 1.14, written by Peter Selinger 2001-2017
</metadata>
<g transform="translate(0.000000,400.000000) scale(0.100000,-0.100000)"
fill="#000000" stroke="none">
<path d="M690 2429 c-51 -21 -92 -79 -56 -79 18 0 106 70 106 84 0 9 -21 6
-50 -5z"/>
<path d="M1525 2228 c-84 -29 -86 -83 -6 -170 39 -43 109 -32 150 23 39 52 9
130 -56 148 -45 13 -49 13 -88 -1z"/>
<path d="M581 2169 c-71 -36 -108 -80 -121 -144 -11 -52 -10 -58 15 -110 29
-58 74 -99 121 -111 27 -7 28 -6 15 10 -13 15 -12 18 8 23 13 3 20 11 17 19
-3 8 1 14 9 14 18 0 19 14 4 42 -9 17 -8 19 10 13 16 -5 22 0 30 32 6 21 11
47 11 58 0 11 12 29 26 40 14 10 32 32 40 47 8 16 19 26 24 23 6 -3 7 0 4 8
-7 20 -71 48 -123 53 -35 4 -57 0 -90 -17z"/>
<path d="M590 1693 c-28 -26 -50 -53 -50 -60 0 -7 -4 -13 -8 -13 -12 0 -72
-86 -72 -103 0 -19 23 -38 36 -29 5 4 23 25 40 47 16 22 41 53 56 70 14 16 35
40 46 53 32 37 46 28 63 -47 23 -94 65 -177 117 -233 41 -44 129 -105 138 -96
2 2 -30 40 -72 84 -113 118 -164 198 -185 292 -10 45 -33 82 -51 82 -4 0 -31
-21 -58 -47z"/>
<path d="M2076 305 c4 -9 0 -15 -9 -15 -24 0 -45 -43 -86 -170 l-39 -120 44 0
c43 0 44 1 44 34 0 18 4 46 9 62 9 30 51 208 51 218 0 3 -4 6 -10 6 -5 0 -7
-7 -4 -15z"/>
</g>
</svg>
